<svg width="239" height="239" viewBox="0 0 239 239" fill="none" xmlns="http://www.w3.org/2000/svg">
<rect width="239" height="239" fill="#78BD87"/>
<path d="M38.3369 218.201C37.0674 219.292 35.6455 220.13 34.0713 220.714C32.4971 221.298 30.8657 221.59 29.1772 221.59C27.8823 221.59 26.6318 221.419 25.4258 221.076C24.2324 220.746 23.1089 220.276 22.0552 219.667C21.0142 219.045 20.062 218.302 19.1987 217.439C18.3354 216.576 17.5928 215.624 16.9707 214.583C16.3613 213.529 15.8853 212.405 15.5425 211.212C15.2124 210.006 15.0474 208.755 15.0474 207.46C15.0474 206.166 15.2124 204.915 15.5425 203.709C15.8853 202.503 16.3613 201.379 16.9707 200.338C17.5928 199.285 18.3354 198.326 19.1987 197.463C20.062 196.6 21.0142 195.863 22.0552 195.254C23.1089 194.632 24.2324 194.156 25.4258 193.826C26.6318 193.483 27.8823 193.312 29.1772 193.312C30.8657 193.312 32.4971 193.604 34.0713 194.188C35.6455 194.759 37.0674 195.597 38.3369 196.701L35.4424 201.462C34.6426 200.599 33.6968 199.938 32.605 199.481C31.5132 199.012 30.3706 198.777 29.1772 198.777C27.9712 198.777 26.8413 199.005 25.7876 199.462C24.7339 199.919 23.8135 200.542 23.0264 201.329C22.2393 202.103 21.6172 203.023 21.1602 204.09C20.7031 205.144 20.4746 206.267 20.4746 207.46C20.4746 208.654 20.7031 209.777 21.1602 210.831C21.6172 211.872 22.2393 212.786 23.0264 213.573C23.8135 214.36 24.7339 214.982 25.7876 215.439C26.8413 215.896 27.9712 216.125 29.1772 216.125C30.3706 216.125 31.5132 215.896 32.605 215.439C33.6968 214.97 34.6426 214.303 35.4424 213.44L38.3369 218.201ZM70.9552 221H65.5089V201.5C65.5089 201.119 65.4328 200.764 65.2804 200.434C65.1408 200.104 64.944 199.818 64.6901 199.577C64.4489 199.323 64.1632 199.126 63.8332 198.986C63.5031 198.847 63.1476 198.777 62.7668 198.777C62.3859 198.777 62.0304 198.847 61.7004 198.986C61.3703 199.126 61.0783 199.323 60.8244 199.577C60.5832 199.818 60.3927 200.104 60.2531 200.434C60.1134 200.764 60.0436 201.119 60.0436 201.5V221H54.5783V201.5C54.5783 201.119 54.5085 200.764 54.3688 200.434C54.2292 200.104 54.0324 199.818 53.7785 199.577C53.5373 199.323 53.2516 199.126 52.9215 198.986C52.5915 198.847 52.236 198.777 51.8551 198.777C51.4743 198.777 51.1188 198.847 50.7887 198.986C50.4587 199.126 50.1667 199.323 49.9128 199.577C49.6715 199.818 49.4811 200.104 49.3415 200.434C49.2018 200.764 49.132 201.119 49.132 201.5V221H43.6667V201.5C43.6667 200.37 43.8761 199.31 44.2951 198.32C44.7267 197.317 45.3107 196.447 46.047 195.711C46.7961 194.962 47.6657 194.378 48.6559 193.959C49.6588 193.527 50.7253 193.312 51.8551 193.312C52.8708 193.312 53.8483 193.496 54.7878 193.864C55.7272 194.219 56.5714 194.74 57.3205 195.425C58.0695 194.74 58.9074 194.219 59.8341 193.864C60.7736 193.496 61.7511 193.312 62.7668 193.312C63.8966 193.312 64.9567 193.527 65.9469 193.959C66.9499 194.378 67.8195 194.962 68.5558 195.711C69.3048 196.447 69.8888 197.317 70.3078 198.32C70.7394 199.31 70.9552 200.37 70.9552 201.5V221ZM76.5897 201.881C76.5897 200.751 76.8055 199.691 77.2371 198.701C77.6688 197.71 78.2528 196.847 78.9891 196.111C79.7381 195.362 80.6077 194.771 81.598 194.34C82.5882 193.908 83.6483 193.692 84.7781 193.692H97.3084V199.158H84.7781C84.3973 199.158 84.0418 199.228 83.7117 199.367C83.3817 199.507 83.0897 199.704 82.8358 199.958C82.5946 200.199 82.4041 200.484 82.2645 200.814C82.1248 201.145 82.055 201.5 82.055 201.881C82.055 202.262 82.1248 202.624 82.2645 202.966C82.4041 203.296 82.5946 203.588 82.8358 203.842C83.0897 204.083 83.3817 204.274 83.7117 204.414C84.0418 204.553 84.3973 204.623 84.7781 204.623H90.2435C91.3734 204.623 92.4334 204.839 93.4237 205.271C94.4266 205.689 95.2962 206.273 96.0325 207.022C96.7816 207.759 97.3655 208.628 97.7845 209.631C98.2161 210.622 98.432 211.682 98.432 212.812C98.432 213.941 98.2161 215.001 97.7845 215.992C97.3655 216.982 96.7816 217.852 96.0325 218.601C95.2962 219.337 94.4266 219.921 93.4237 220.353C92.4334 220.784 91.3734 221 90.2435 221H78.1131V215.535H90.2435C90.6243 215.535 90.9798 215.465 91.3099 215.325C91.64 215.186 91.9256 214.995 92.1668 214.754C92.4207 214.5 92.6175 214.208 92.7571 213.878C92.8968 213.548 92.9666 213.192 92.9666 212.812C92.9666 212.431 92.8968 212.075 92.7571 211.745C92.6175 211.415 92.4207 211.129 92.1668 210.888C91.9256 210.634 91.64 210.438 91.3099 210.298C90.9798 210.158 90.6243 210.088 90.2435 210.088H84.7781C83.6483 210.088 82.5882 209.873 81.598 209.441C80.6077 209.009 79.7381 208.425 78.9891 207.689C78.2528 206.94 77.6688 206.07 77.2371 205.08C76.8055 204.077 76.5897 203.011 76.5897 201.881ZM133.714 210.088V204.623C133.714 203.874 133.568 203.169 133.276 202.509C132.997 201.836 132.61 201.252 132.114 200.757C131.619 200.262 131.035 199.875 130.362 199.596C129.702 199.304 128.998 199.158 128.249 199.158C127.5 199.158 126.789 199.304 126.116 199.596C125.456 199.875 124.878 200.262 124.383 200.757C123.888 201.252 123.494 201.836 123.202 202.509C122.923 203.169 122.783 203.874 122.783 204.623V210.088H133.714ZM139.179 221H133.714V215.535H122.783V221H117.337V204.623C117.337 203.112 117.623 201.697 118.194 200.376C118.765 199.043 119.54 197.882 120.517 196.892C121.507 195.901 122.663 195.121 123.983 194.549C125.316 193.978 126.738 193.692 128.249 193.692C129.759 193.692 131.175 193.978 132.495 194.549C133.828 195.121 134.99 195.901 135.98 196.892C136.97 197.882 137.751 199.043 138.322 200.376C138.894 201.697 139.179 203.112 139.179 204.623V221ZM173.359 221H167.913V201.5C167.913 201.119 167.837 200.764 167.684 200.434C167.545 200.104 167.348 199.818 167.094 199.577C166.853 199.323 166.567 199.126 166.237 198.986C165.907 198.847 165.552 198.777 165.171 198.777C164.79 198.777 164.434 198.847 164.104 198.986C163.774 199.126 163.482 199.323 163.228 199.577C162.987 199.818 162.797 200.104 162.657 200.434C162.517 200.764 162.448 201.119 162.448 201.5V221H156.982V201.5C156.982 201.119 156.912 200.764 156.773 200.434C156.633 200.104 156.436 199.818 156.182 199.577C155.941 199.323 155.656 199.126 155.325 198.986C154.995 198.847 154.64 198.777 154.259 198.777C153.878 198.777 153.523 198.847 153.193 198.986C152.863 199.126 152.571 199.323 152.317 199.577C152.075 199.818 151.885 200.104 151.745 200.434C151.606 200.764 151.536 201.119 151.536 201.5V221H146.071V201.5C146.071 200.37 146.28 199.31 146.699 198.32C147.131 197.317 147.715 196.447 148.451 195.711C149.2 194.962 150.07 194.378 151.06 193.959C152.063 193.527 153.129 193.312 154.259 193.312C155.275 193.312 156.252 193.496 157.192 193.864C158.131 194.219 158.975 194.74 159.724 195.425C160.473 194.74 161.311 194.219 162.238 193.864C163.178 193.496 164.155 193.312 165.171 193.312C166.301 193.312 167.361 193.527 168.351 193.959C169.354 194.378 170.223 194.962 170.96 195.711C171.709 196.447 172.293 197.317 172.712 198.32C173.143 199.31 173.359 200.37 173.359 201.5V221ZM202.397 218.201C201.128 219.292 199.706 220.13 198.132 220.714C196.558 221.298 194.926 221.59 193.238 221.59C191.943 221.59 190.692 221.419 189.486 221.076C188.293 220.746 187.169 220.276 186.116 219.667C185.075 219.045 184.123 218.302 183.259 217.439C182.396 216.576 181.653 215.624 181.031 214.583C180.422 213.529 179.946 212.405 179.603 211.212C179.273 210.006 179.108 208.755 179.108 207.46C179.108 206.166 179.273 204.915 179.603 203.709C179.946 202.503 180.422 201.379 181.031 200.338C181.653 199.285 182.396 198.326 183.259 197.463C184.123 196.6 185.075 195.863 186.116 195.254C187.169 194.632 188.293 194.156 189.486 193.826C190.692 193.483 191.943 193.312 193.238 193.312C194.926 193.312 196.558 193.604 198.132 194.188C199.706 194.759 201.128 195.597 202.397 196.701L199.503 201.462C198.703 200.599 197.757 199.938 196.665 199.481C195.574 199.012 194.431 198.777 193.238 198.777C192.032 198.777 190.902 199.005 189.848 199.462C188.794 199.919 187.874 200.542 187.087 201.329C186.3 202.103 185.678 203.023 185.221 204.09C184.764 205.144 184.535 206.267 184.535 207.46C184.535 208.654 184.764 209.777 185.221 210.831C185.678 211.872 186.3 212.786 187.087 213.573C187.874 214.36 188.794 214.982 189.848 215.439C190.902 215.896 192.032 216.125 193.238 216.125C194.431 216.125 195.574 215.896 196.665 215.439C197.757 214.97 198.703 214.303 199.503 213.44L202.397 218.201ZM219.381 221H213.935V199.158H205.728V193.692H227.57V199.158H219.381V221Z" fill="black"/>
<g filter="url(#filter0_d_4_10)">
<path d="M78.5 175V166C78.5 159.373 73.1274 154 66.5 154H26.5C19.8726 154 14.5 148.627 14.5 142V89.5C14.5 82.8726 19.8726 77.5 26.5 77.5H66.5C73.1274 77.5 78.5 72.1274 78.5 65.5V25C78.5 18.3726 83.8794 13 90.5068 13C109.608 13 123.892 13 142.993 13C149.621 13 155 18.3726 155 25V65.5C155 72.1274 160.373 77.5 167 77.5H209C215.627 77.5 221 82.8726 221 89.5V142C221 148.627 215.627 154 209 154H167C160.373 154 155 159.373 155 166V175" stroke="black" stroke-width="10" stroke-linecap="round"/>
</g>
<path d="M115 178V181H121V178H115ZM121 43C121 41.3431 119.657 40 118 40C116.343 40 115 41.3431 115 43H121ZM121 178L121 43H115L115 178H121Z" fill="black"/>
<path d="M131 63.5C131 63.5 103.639 69.4514 102 83C100.124 98.5079 134.81 91.4001 134 107C133.219 122.035 102.63 113.458 102 128.5C101.352 143.991 136.116 136.64 134 152C132.167 165.308 105 170.5 105 170.5" stroke="black" stroke-width="6"/>
<line x1="79.5" y1="235.5" x2="155.5" y2="235.5" stroke="black" stroke-width="3" stroke-linecap="round"/>
<defs>
<filter id="filter0_d_4_10" x="5.5" y="7.99997" width="224.5" height="180" filterUnits="userSpaceOnUse" color-interpolation-filters="sRGB">
<feFlood flood-opacity="0" result="BackgroundImageFix"/>
<feColorMatrix in="SourceAlpha" type="matrix" values="0 0 0 0 0 0 0 0 0 0 0 0 0 0 0 0 0 0 127 0" result="hardAlpha"/>
<feOffset dy="4"/>
<feGaussianBlur stdDeviation="2"/>
<feComposite in2="hardAlpha" operator="out"/>
<feColorMatrix type="matrix" values="0 0 0 0 0 0 0 0 0 0 0 0 0 0 0 0 0 0 0.25 0"/>
<feBlend mode="normal" in2="BackgroundImageFix" result="effect1_dropShadow_4_10"/>
<feBlend mode="normal" in="SourceGraphic" in2="effect1_dropShadow_4_10" result="shape"/>
</filter>
</defs>
</svg>
